#!OML:ASF F:\VICON\USERDATA\INSTALL\rory3\rory3.ASF
:FULLY-SPECIFIED
:DEGREES
306
root -0.72728 14.5055 -6.29629 -164.33 1.52201 175.812
lowerback 9.66787 1.85043 -5.70709
upperback 5.72049 2.61165 -0.215341
thorax 0.33247 1.43163 2.73706
lowerneck -12.9645 5.64315 -0.213903
upperneck 48.5546 -1.74358 2.28548
head 22.6534 -2.53265 0.0384374
rclavicle 1.59028e-014 3.57812e-015
rhumerus 11.9524 32.8073 -85.1758
rradius 17.5699
rwrist 25.0137
rhand 10.1638 12.7164
rfingers 7.12502
rthumb 35.2817 -13.7735
lclavicle 1.59028e-014 3.57812e-015
lhumerus 39.6795 -47.6722 62.3516
lradius 23.0713
lwrist -35.2284
lhand 3.12308 25.5726
lfingers 7.12502
lthumb 28.5782 53.4081
rfemur -71.1737 -38.1964 39.0527
rtibia 94.6877
rfoot 46.8479 -26.6142
rtoes 38.394
lfemur -67.2867 20.0203 -49.539
ltibia 66.0372
lfoot -24.6243 11.761
ltoes -8.81044
307
root -0.725146 14.5518 -6.31229 -164.267 0.950308 176.217
lowerback 9.51611 1.75338 -4.99521
upperback 5.64841 2.52606 -0.0064361
thorax 0.357839 1.394 2.56731
lowerneck -13.1732 5.55406 -0.275932
upperneck 48.5435 -1.7295 2.1526
head 22.7207 -2.54452 -0.0180847
rclavicle -1.47101e-014 -7.95139e-016
rhumerus 12.9131 35.7809 -85.1627
rradius 19.0189
rwrist 22.9053
rhand 11.9989 13.4273
rfingers 7.12502
rthumb 37.0197 -12.632
lclavicle -1.47101e-014 -7.95139e-016
lhumerus 42.1323 -48.9514 61.6299
lradius 23.9979
lwrist -33.5872
lhand 2.73037 25.1626
lfingers 7.12502
lthumb 28.2029 53.0607
rfemur -70.4021 -38.5171 39.2876
rtibia 94.2315
rfoot 46.2538 -24.2502
rtoes 36.7705
lfemur -66.7969 19.7087 -48.8921
ltibia 65.4432
lfoot -24.3349 12.0753
ltoes -10.5423
308
root -0.720069 14.5959 -6.31886 -164.24 0.601095 176.476
lowerback 9.47541 3.517 -1.83879
upperback 4.92058 5.03926 -1.87613
thorax -0.166539 2.729 -1.38131
lowerneck -11.0635 3.8759 2.90971
upperneck 47.8997 -6.04596 3.19147
head 21.4366 -3.43866 -0.869249
rclavicle 1.5704e-014 4.77083e-015
rhumerus 11.2794 25.609 -89.2985
rradius 18.6969
rwrist 26.7501
rhand 11.0839 15.5293
rfingers 7.12502
rthumb 36.1536 -10.7493
lclavicle 1.5704e-014 4.77083e-015
lhumerus 53.3261 -57.6053 51.0592
lradius 26.414
lwrist -29.3486
lhand 3.60753 24.9841
lfingers 7.12502
lthumb 29.0409 52.7408
rfemur -69.5078 -38.4625 39.2082
rtibia 93.8638
rfoot 44.3052 -24.2781
rtoes 37.5999
lfemur -66.3651 19.5045 -48.4421
ltibia 64.843
lfoot -23.8074 12.6725
ltoes -13.2829
309
root -0.712072 14.639 -6.32937 -164.317 0.270045 176.066
lowerback 8.77828 3.35883 -4.44758
upperback 4.68723 3.71051 -0.556707
thorax -0.303149 1.61385 1.57905
lowerneck -9.81121 4.62287 3.05798
upperneck 48.0392 -4.25293 1.63383
head 21.0034 -3.02683 -1.35459
rclavicle -4.77083e-015 -7.55382e-015
rhumerus 12.0514 33.4716 -88.1375
rradius 20.9824
rwrist 21.421
rhand 12.88 14.9568
rfingers 7.12502
rthumb 37.8525 -10.8824
lclavicle -4.77083e-015 -7.55382e-015
lhumerus 49.9945 -55.3534 56.1043
lradius 26.9091
lwrist -28.9091
lhand 3.94891 23.8224
lfingers 7.12502
lthumb 29.3669 51.5224
rfemur -68.4044 -38.5865 38.2082
rtibia 93.5967
rfoot 44.3916 -22.7121
rtoes 32.1156
lfemur -65.513 19.2097 -48.5978
ltibia 64.0816
lfoot -23.4058 13.0723
ltoes -16.0407
310
root -0.720528 14.6569 -6.32767 -163.709 0.875446 175.94
lowerback 9.02684 2.04474 -4.74903
upperback 4.48759 2.75077 -0.109686
thorax -0.59523 1.48141 2.28822
lowerneck -11.9247 5.54936 0.100347
upperneck 48.5909 -2.00607 2.05088
head 22.285 -2.6647 -0.218469
rclavicle 1.55052e-014 -1.98785e-014
rhumerus 15.4355 41.7254 -85.3037
rradius 23.3458
rwrist 15.0753
rhand 14.259 13.5581
rfingers 7.12502
rthumb 39.1537 -11.9177
lclavicle 1.55052e-014 -1.98785e-014
lhumerus 49.5844 -52.4338 57.931
lradius 27.5324
lwrist -26.886
lhand 3.50692 23.2351
lfingers 7.12502
lthumb 28.9448 51.0083
rfemur -68.5178 -37.538 37.7614
rtibia 93.5863
rfoot 44.0086 -19.4691
rtoes 26.506
lfemur -65.9047 19.0855 -49.0449
ltibia 63.3812
lfoot -23.1921 13.5934
ltoes -18.1328
311
root -0.711904 14.7378 -6.33609 -163.774 0.467056 175.973
lowerback 11.3882 2.36095 -4.53911
upperback 2.22097 2.37802 -0.0462333
thorax -4.24417 1.14216 2.15778
lowerneck -9.42264 6.16824 0.267558
upperneck 49.7078 -2.46733 2.33961
head 22.3764 -3.07863 -0.285048
rclavicle -1.31198e-014 1.27222e-014
rhumerus 12.5148 44.8835 -87.6096
rradius 25.198
rwrist 11.3898
rhand 12.7215 12.3236
rfingers 7.12502
rthumb 37.7028 -13.5559
lclavicle -1.31198e-014 1.27222e-014
lhumerus 46.0435 -53.8474 62.0223
lradius 28.3956
lwrist -25.4905
lhand 3.69381 22.3481
lfingers 7.12502
lthumb 29.1233 50.0906
rfemur -67.4109 -37.7669 37.3725
rtibia 93.1565
rfoot 42.6287 -14.9512
rtoes 20.4652
lfemur -65.0139 19.0001 -48.74
ltibia 62.399
lfoot -22.8415 13.6669
ltoes -19.5293
312
root -0.700255 14.8035 -6.33171 -163.74 0.431604 175.909
lowerback 10.2121 2.37925 -4.53763
upperback 2.81367 2.45387 -0.0095974
thorax -2.98383 1.13511 2.2336
lowerneck -10.1263 6.03976 0.0452251
upperneck 49.6859 -2.43382 2.30166
head 22.6257 -3.06184 -0.249541
rclavicle -4.11484e-014 2.26615e-014
rhumerus 15.9899 44.6616 -85.9619
rradius 26.8262
rwrist 10.692
rhand 15.7357 12.6001
rfingers 7.12502
rthumb 40.5437 -12.4596
lclavicle -4.11484e-014 2.26615e-014
lhumerus 49.4451 -52.6845 60.6446
lradius 29.3696
lwrist -24.5426
lhand 5.57241 20.8509
lfingers 7.12502
lthumb 30.9158 48.2684
rfemur -66.4374 -37.4803 36.8331
rtibia 92.8797
rfoot 40.3653 -11.5283
rtoes 15.4456
lfemur -64.4051 19.0822 -48.6563
ltibia 61.4871
lfoot -22.8167 13.5036
ltoes -19.8877
313
root -0.690716 14.841 -6.32723 -163.568 0.735594 175.733
lowerback 9.20448 2.18513 -4.81985
upperback 3.05792 2.72312 -0.0611906
thorax -2.18732 1.45894 2.33784
lowerneck -10.379 5.90601 -0.323087
upperneck 49.505 -2.53196 2.6311
head 22.5653 -3.09926 -0.00409043
rclavicle -8.74653e-015 -5.56597e-015
rhumerus 19.5023 47.2508 -82.9847
rradius 28.1797
rwrist 6.15111
rhand 11.8849 13.3771
rfingers 7.12502
rthumb 36.9119 -12.7101
lclavicle -8.74653e-015 -5.56597e-015
lhumerus 54.3954 -53.0636 56.509
lradius 31.0653
lwrist -19.7392
lhand 6.24397 21.6272
lfingers 7.12502
lthumb 31.5558 48.9213
rfemur -65.5456 -36.7167 36.0285
rtibia 92.6167
rfoot 36.6776 -9.07974
rtoes 13.3913
lfemur -63.932 18.9627 -48.6499
ltibia 60.5532
lfoot -23.0764 13.1692
ltoes -18.1619
314
root -0.684456 14.8888 -6.32778 -163.373 0.874842 175.822
lowerback 8.32705 2.35273 -4.6291
upperback 3.1872 3.00827 -0.0676565
thorax -1.58248 1.5845 2.23214
lowerneck -10.7319 5.7058 -0.619968
upperneck 49.3933 -2.81586 2.99258
head 22.6285 -3.19138 0.201023
rclavicle 1.19271e-014 2.94201e-014
rhumerus 23.0366 48.3364 -79.9515
rradius 29.8882
rwrist 4.96361
rhand 11.2694 13.5434
rfingers 7.12502
rthumb 36.3293 -12.6915
lclavicle 1.19271e-014 2.94201e-014
lhumerus 58.0313 -52.9453 54.1125
lradius 32.5655
lwrist -16.8106
lhand 6.04936 22.2071
lfingers 7.12502
lthumb 31.3704 49.5374
rfemur -64.5678 -35.9816 35.5286
rtibia 92.2755
rfoot 31.6886 -5.51569
rtoes 12.9347
lfemur -63.5063 18.7345 -48.3437
ltibia 59.7081
lfoot -23.1478 13.3436
ltoes -18.3094
315
root -0.730597 14.9868 -6.42655 -164.394 2.9073 176.269
lowerback 7.23634 3.05652 -3.97975
upperback 3.94292 4.1152 -0.310851
thorax -0.218445 2.12895 1.5983
lowerneck -10.926 5.50257 -0.649399
upperneck 49.1654 -3.00372 3.11634
head 22.5079 -3.21407 0.249413
rclavicle 3.53837e-014 -1.27222e-014
rhumerus 27.0767 49.4003 -76.416
rradius 31.594
rwrist 2.92403
rhand 11.1351 13.5514
rfingers 7.12502
rthumb 36.2021 -12.7152
lclavicle 3.53837e-014 -1.27222e-014
lhumerus 61.4196 -52.4599 51.8222
lradius 33.9149
lwrist -14.6223
lhand 5.73956 22.2505
lfingers 7.12502
lthumb 31.0751 49.6377
rfemur -61.0739 -34.5996 33.4252
rtibia 91.3255
rfoot 28.4355 1.64322
rtoes -1.48422
lfemur -61.8219 20.397 -47.7152
ltibia 58.8527
lfoot -24.3873 13.6097
ltoes -17.2838
316
root -0.665879 15.0108 -6.32836 -163.311 1.34273 176.083
lowerback 6.84088 2.68071 -4.09318
upperback 3.38452 3.55264 -0.261672
thorax -0.556393 1.8345 1.75976
lowerneck -10.7005 5.37291 -0.46886
upperneck 48.9453 -3.19907 3.1884
head 22.233 -3.23222 0.223535
rclavicle -3.69739e-014 1.74931e-014
rhumerus 29.6638 48.7527 -74.918
rradius 32.8347
rwrist 2.95873
rhand 11.6206 14.5619
rfingers 7.12502
rthumb 36.6617 -11.5893
lclavicle -3.69739e-014 1.74931e-014
lhumerus 65.7503 -52.1997 47.8728
lradius 35.4206
lwrist -11.7802
lhand 5.1605 22.7463
lfingers 7.12502
lthumb 30.5231 50.2376
rfemur -61.9522 -34.4556 34.3415
rtibia 91.2127
rfoot 24.5068 3.13828
rtoes -2.61128
lfemur -62.4324 18.7514 -47.6599
ltibia 58.169
lfoot -23.9665 13.05
ltoes -16.7296
